Coordinates
version=1
nRows=18
nColumns=22
inDegrees=yes

Units are S.I. units (second, meters, Newtons, ...)
If the header above contains a line with 'inDegrees', this indicates whether rotational values are in degrees (yes) or radians (no).

endheader
time	pelvis_tilt	pelvis_list	pelvis_rotation	pelvis_tx	pelvis_ty	pelvis_tz	hip_flexion_r	hip_adduction_r	hip_rotation_r	knee_angle_r	ankle_angle_r	subtalar_angle_r	hip_flexion_l	hip_adduction_l	hip_rotation_l	knee_angle_l	ankle_angle_l	subtalar_angle_l	lumbar_extension	lumbar_bending	lumbar_rotation
      0.01000000	      1.24034512	     -4.09989220	     -4.31849311	     -1.17280982	      1.02623946	     -0.31942240	     -0.07675064	      5.59725847	     -7.82066871	    -10.89970250	      9.23160060	     -3.43041010	     -0.30383037	     -2.41581922	     -5.25192528	    -11.02511121	     11.06922609	     -2.76217838	     -8.55695034	      3.83407758	      1.19733686
      0.02000000	      1.23724144	     -4.10375441	     -4.31149469	     -1.17287930	      1.02622901	     -0.31930619	     -0.06295289	      5.60955858	     -7.81686647	    -10.91411644	      9.22922445	     -3.43095584	     -0.28680289	     -2.42889627	     -5.24077818	    -11.04187744	     11.06944415	     -2.76378501	     -8.58330225	      3.83457834	      1.21181075
      0.03000000	      1.22834878	     -4.11054385	     -4.30447761	     -1.17295088	      1.02621227	     -0.31918806	     -0.04245309	      5.62500553	     -7.81974115	    -10.92922100	      9.22853344	     -3.43348225	     -0.26128681	     -2.44565193	     -5.22672525	    -11.06346191	     11.07378246	     -2.76518419	     -8.60814178	      3.84295525	      1.22922707
      0.04000000	      1.21037495	     -4.11742845	     -4.29767070	     -1.17300852	      1.02618099	     -0.31907182	     -0.01518683	      5.64063734	     -7.82894635	    -10.94029614	      9.22798191	     -3.43819421	     -0.22736837	     -2.46288575	     -5.21325387	    -11.08355753	     11.08387649	     -2.76646674	     -8.62285400	      3.85518883	      1.24541221
      0.05000000	      1.20099299	     -4.11316859	     -4.28831933	     -1.17302785	      1.02616995	     -0.31894680	     -0.00663525	      5.64552288	     -7.82969105	    -10.93610566	      9.22846089	     -3.43852856	     -0.21732644	     -2.46767066	     -5.21417671	    -11.07615439	     11.08507962	     -2.76654838	     -8.64103829	      3.85214126	      1.24974216
      0.06000000	      1.18739889	     -4.11516896	     -4.27154920	     -1.17306978	      1.02615096	     -0.31883326	      0.01324585	      5.65727322	     -7.83809991	    -10.94422226	      9.22776717	     -3.44207446	     -0.19073481	     -2.47996242	     -5.19336634	    -11.09131782	     11.08527947	     -2.76600599	     -8.65916797	      3.85469372	      1.28469850
      0.07000000	      1.16515952	     -4.11454866	     -4.25827134	     -1.17308636	      1.02612238	     -0.31873495	      0.03682272	      5.66494797	     -7.85276761	    -10.94305840	      9.22674749	     -3.44681723	     -0.16479192	     -2.48835807	     -5.17894453	    -11.08937836	     11.08752010	     -2.76523192	     -8.66428740	      3.86052628	      1.30849692
      0.08000000	      1.15411508	     -4.10863680	     -4.24997611	     -1.17308662	      1.02611301	     -0.31864361	      0.04443451	      5.66571086	     -7.85413350	    -10.93593748	      9.22725439	     -3.44713353	     -0.15638373	     -2.48915544	     -5.18066041	    -11.07957154	     11.08807956	     -2.76516632	     -8.68163051	      3.86223217	      1.31247318
      0.09000000	      1.13655487	     -4.09962542	     -4.23311508	     -1.17304680	      1.02609752	     -0.31856707	      0.05063611	      5.66442887	     -7.86960233	    -10.91684122	      9.22629035	     -3.44898020	     -0.14674333	     -2.48598336	     -5.17175827	    -11.06057741	     11.08166132	     -2.76379904	     -8.68139399	      3.85762210	      1.34479846
      0.10000000	      1.12495632	     -4.09257871	     -4.22334837	     -1.17303609	      1.02609041	     -0.31850334	      0.05717443	      5.66272186	     -7.87172932	    -10.90724842	      9.22648735	     -3.44920170	     -0.14040775	     -2.48384005	     -5.17379918	    -11.04722500	     11.08088917	     -2.76352355	     -8.69774792	      3.86108993	      1.35130876
      0.11000000	      1.10574261	     -4.07498283	     -4.21488590	     -1.17294373	      1.02608106	     -0.31843556	      0.05220260	      5.65105576	     -7.89641359	    -10.86597069	      9.22208444	     -3.45020243	     -0.14860325	     -2.46798941	     -5.16390467	    -10.99794436	     11.06138600	     -2.76009093	     -8.68661541	      3.84836568	      1.39141300
      0.12000000	      1.09515244	     -4.06737813	     -4.19805951	     -1.17293686	      1.02607672	     -0.31838503	      0.05757669	      5.64933151	     -7.89627661	    -10.85734444	      9.22180777	     -3.45032648	     -0.14328554	     -2.46529910	     -5.16720827	    -10.98170100	     11.05948358	     -2.75966124	     -8.70353702	      3.85101276	      1.39813075
      0.13000000	      1.08932764	     -4.04129264	     -4.17664482	     -1.17286367	      1.02609294	     -0.31833193	      0.03820320	      5.62863814	     -7.91474051	    -10.81412197	      9.20271092	     -3.45316605	     -0.17760645	     -2.43683121	     -5.12315446	    -10.90178118	     10.99802073	     -2.74839158	     -8.70896553	      3.82795077	      1.41271463
      0.14000000	      1.07771634	     -4.03519349	     -4.15940237	     -1.17289431	      1.02608076	     -0.31825962	      0.04525293	      5.63048108	     -7.91663052	    -10.80173521	      9.20424452	     -3.45331334	     -0.16847152	     -2.43785869	     -5.12693186	    -10.88703985	     10.99837506	     -2.74816274	     -8.73042764	      3.82849360	      1.41794803
      0.15000000	      1.05819820	     -4.03400698	     -4.10002465	     -1.17287873	      1.02606333	     -0.31823680	      0.03476744	      5.64137429	     -7.96683661	    -10.74350438	      9.19004376	     -3.45894855	     -0.15840395	     -2.44296233	     -5.05950636	    -10.85129396	     10.97061488	     -2.73678433	     -8.72950177	      3.83848574	      1.38590920
      0.16000000	      1.04496345	     -4.02800355	     -4.08062753	     -1.17293421	      1.02604658	     -0.31815409	      0.04466803	      5.64488196	     -7.96918482	    -10.73094865	      9.19108530	     -3.45918622	     -0.14616576	     -2.44520996	     -5.06271769	    -10.83507871	     10.97141195	     -2.73652355	     -8.75347147	      3.83806576	      1.38949424
      0.17000000	      0.99777467	     -4.03384746	     -3.99646005	     -1.17295431	      1.02598388	     -0.31816216	      0.06915911	      5.66562413	     -8.04604808	    -10.67889630	      9.16697593	     -3.47044800	     -0.09130660	     -2.46127991	     -4.96071536	    -10.81827786	     10.94837682	     -2.72348675	     -8.72498788	      3.86322875	      1.31674255
      0.18000000	      0.94902425	     -4.02829882	     -3.93996368	     -1.17299890	      1.02591372	     -0.31813168	      0.11148091	      5.67245197	     -8.10437293	    -10.65457881	      9.16224837	     -3.48365140	     -0.03263689	     -2.46647370	     -4.91054364	    -10.80784844	     10.94304686	     -2.71679886	     -8.70230412	      3.87307640	      1.27361928
